# xmcd CD database file generated by Grip 3.3.1
# 
# Track frame offsets:
#       150
#       27860
#       61088
#       87674
#       122011
#       149704
#       180721
#       203981
#       233335
#       262134
#       293175
#       323057
# 
# Disc length: 4681 seconds
# 
# Revision: 4
# Processed by: cddbd v1.5.2PL0 Copyright (c) Steve Scherf et al.
# Submitted via: Grip 3.3.1
# 
DISCID=b212470c
DTITLE=Sunlounger - Sunny Tales - Disc 2 - Dance
DYEAR=2008
DGENRE=Trance
TTITLE0=Sunlounger - Sunny Tales
TTITLE1=Sunlounger - Change Your Mind
TTITLE2=Sunlounger - Mediterranean Flower
TTITLE3=Sunlounger - Lost (feat. Zara)
TTITLE4=Sunlounger - Spiritual Hideout
TTITLE5=Sunlounger - Heart Of Sun (feat. Cap and Stephanie Asscher)
TTITLE6=Sunlounger - Punta Galera
TTITLE7=Sunlounger - Your Name (feat. Lorilee)
TTITLE8=Sunlounger - Catwalk
TTITLE9=Sunlounger - Talk To Me (feat. Zara)
TTITLE10=Sunlounger - One More Day (with Ingsha feat. Simon Binkenborn)
TTITLE11=Sunlounger - A Balearic Breakfast (feat. Seis Cuerdas)
EXTD=Magic Island Records
EXTT0=
EXTT1=
EXTT2=
EXTT3=
EXTT4=
EXTT5=
EXTT6=
EXTT7=
EXTT8=
EXTT9=
EXTT10=
EXTT11=
PLAYORDER=
